# xmcd
#
# Track frame offsets: 
#        150
#        10318
#        24551
#        38114
#        65791
#        76778
#        93889
#        120561
#        144239
#        176342
#        209209
#
# Disc length: 2964 seconds
#
# Revision: 0
# Processed by: cddbd v1.5.2PL0 Copyright (c) Steve Scherf et al.
# Submitted via: ExactAudioCopy v1.3
#
DISCID=8d0b920b
DTITLE=Shelley King - Armadillo Bootleg No. 2
DYEAR=2012
DGENRE=Country Blues
TTITLE0=Stay Awhile
TTITLE1=Christmas In Austin
TTITLE2=Sweeter
TTITLE3=Is There A Reason
TTITLE4=Wide Awake
TTITLE5=Down
TTITLE6=Tennessee Whiskey
TTITLE7=Falling Fast
TTITLE8=Brand New Day
TTITLE9=Promised Land
TTITLE10=Crabapple
EXTD=
EXTT0=
EXTT1=
EXTT2=
EXTT3=
EXTT4=
EXTT5=
EXTT6=
EXTT7=
EXTT8=
EXTT9=
EXTT10=
PLAYORDER=
